HIERARCHY
ROOT Hips
{
	OFFSET -3.958830 18.904000 13.208200
	CHANNELS 6 Xposition Yposition Zposition Zrotation Yrotation Xrotation 
	JOINT LHipJoint
	{
		OFFSET 0.000000 0.000000 0.000000
		CHANNELS 3 Zrotation Yrotation Xrotation
		JOINT LeftUpLeg
		{
			OFFSET 1.800000 -1.400000 0.085000
			CHANNELS 3 Zrotation Yrotation Xrotation
			JOINT LeftLeg
			{
				OFFSET 2.215000 -6.000000 0.000000
				CHANNELS 3 Zrotation Yrotation Xrotation
				JOINT LeftFoot
				{
					OFFSET 2.500000 -6.900000 0.000000
					CHANNELS 3 Zrotation Yrotation Xrotation
					JOINT LeftToeBase
					{
						OFFSET 0.200000 -0.500000 1.950000
						CHANNELS 3 Zrotation Yrotation Xrotation
						End Site
						{
							OFFSET 0.000000 0.000000 0.000000
						}
					}
				}
			}
		}
	}
	JOINT RHipJoint
	{
		OFFSET 0.000000 0.000000 0.000000
		CHANNELS 3 Zrotation Yrotation Xrotation
		JOINT RightUpLeg
		{
			OFFSET -1.800000 -1.400000 0.085000
			CHANNELS 3 Zrotation Yrotation Xrotation
			JOINT RightLeg
			{
				OFFSET -2.215000 -6.000000 0.000000
				CHANNELS 3 Zrotation Yrotation Xrotation
				JOINT RightFoot
				{
					OFFSET -2.500000 -6.900000 0.000000
					CHANNELS 3 Zrotation Yrotation Xrotation
					JOINT RightToeBase
					{
						OFFSET -0.200000 -0.500000 1.950000
						CHANNELS 3 Zrotation Yrotation Xrotation
						End Site
						{
							OFFSET 0.000000 0.000000 0.000000
						}
					}
				}
			}
		}
	}
	JOINT LowerBack
	{
		OFFSET 0.000000 0.000000 0.000000
		CHANNELS 3 Zrotation Yrotation Xrotation
		JOINT Spine
		{
			OFFSET -0.087000 1.940000 -0.288900
			CHANNELS 3 Zrotation Yrotation Xrotation
			JOINT Spine1
			{
				OFFSET 0.000000 1.950000 0.060000
				CHANNELS 3 Zrotation Yrotation Xrotation
				JOINT Neck
				{
					OFFSET 0.000000 0.000000 0.000000
					CHANNELS 3 Zrotation Yrotation Xrotation
					JOINT Neck1
					{
						OFFSET 0.000000 1.600000 0.340000
						CHANNELS 3 Zrotation Yrotation Xrotation
						JOINT Head
						{
							OFFSET 0.000000 1.667000 -0.240000
							CHANNELS 3 Zrotation Yrotation Xrotation
							End Site
							{
								OFFSET 0.000000 0.000000 0.000000
							}
						}
					}
				}
				JOINT LeftShoulder
				{
					OFFSET 0.000000 0.000000 0.000000
					CHANNELS 3 Zrotation Yrotation Xrotation
					JOINT LeftArm
					{
						OFFSET 2.700000 1.550000 -0.730000
						CHANNELS 3 Zrotation Yrotation Xrotation
						JOINT LeftForeArm
						{
							OFFSET 5.450000 0.000000 0.000000
							CHANNELS 3 Zrotation Yrotation Xrotation
							JOINT LeftHand
							{
								OFFSET 3.450000 0.000000 0.000000
								CHANNELS 3 Zrotation Yrotation Xrotation
								JOINT LeftHandIndex1
								{
									OFFSET 0.750000 0.000000 0.000000
									CHANNELS 3 Zrotation Yrotation Xrotation
									End Site
									{
										OFFSET 0.000000 0.000000 0.000000
									}
								}
							}
						}
					}
				}
				JOINT RightShoulder
				{
					OFFSET 0.000000 0.000000 0.000000
					CHANNELS 3 Zrotation Yrotation Xrotation
					JOINT RightArm
					{
						OFFSET -2.700000 1.550000 -0.730000
						CHANNELS 3 Zrotation Yrotation Xrotation
						JOINT RightForeArm
						{
							OFFSET -5.450000 0.000000 0.000000
							CHANNELS 3 Zrotation Yrotation Xrotation
							JOINT RightHand
							{
								OFFSET -3.450000 0.000000 0.000000
								CHANNELS 3 Zrotation Yrotation Xrotation
								JOINT RightHandIndex1
								{
									OFFSET -0.750000 0.000000 0.000000
									CHANNELS 3 Zrotation Yrotation Xrotation
									End Site
									{
										OFFSET 0.000000 0.000000 0.000000
									}
								}
							}
						}
					}
				}
			}
		}
	}
}
MOTION
Frames: 4
Frame Time: 0.016667
-0.301830 16.719980 -4.547390 -1.808338 5.489888 1.727303 -15.290874 13.546031 2.579430 3.322086 -1.013257 -6.887826 -5.434059 6.269906 17.354726 -0.390002 4.786817 3.085170 0.234950 -0.190090 0.166320 18.160487 -9.916308 3.982608 -10.308025 5.060775 -37.678252 14.708094 -13.381967 39.370092 -0.757056 -6.767392 2.007458 -0.070020 0.355300 0.374750 -3.322297 -2.801235 -8.057588 6.875037 -3.701213 13.275706 -2.338859 -2.805983 -2.148409 3.397776 1.361044 -6.812020 0.106661 0.731157 37.556791 -1.381110 1.629140 -6.412210 -26.207141 -4.264032 0.362766 -47.315644 -4.633507 -4.518737 -4.895973 -19.061688 -1.081569 -3.929970 2.840654 0.605370 0.216360 -0.022400 0.204480 19.965869 2.419334 3.360112 52.777329 -3.212459 -7.981945 12.997125 11.172672 -0.115450 2.201065 -1.153612 -0.233240 0.162460 0.102930 -0.220700 
-0.309680 16.717370 -4.529510 -1.881461 5.065832 1.638551 -15.286674 13.582137 2.595938 3.419214 -0.967809 -6.645693 -5.497895 6.309346 17.307717 -0.385444 4.815414 3.079650 0.230500 -0.198000 0.167440 18.157590 -9.935761 3.952043 -9.848232 5.086234 -37.636949 14.060423 -12.749192 38.513254 -0.699466 -6.489739 2.101342 -0.073000 0.355670 0.368570 -3.318466 -2.831560 -8.047456 6.959150 -3.793363 13.375048 -2.375704 -2.871720 -2.086890 3.374412 1.205325 -6.946299 -0.185742 0.888690 37.474397 -1.314830 1.678630 -6.495580 -25.875923 -4.298808 0.468196 -47.261144 -4.368414 -4.699284 -4.506513 -19.413127 -1.142806 -3.923314 2.832168 0.611480 0.212490 -0.023100 0.202960 19.660106 2.549118 3.510869 52.589694 -3.448617 -8.218206 13.639728 11.842878 -0.063871 2.194050 -1.152285 -0.240360 0.168190 0.103700 -0.223650 
-0.325330 16.711290 -4.500330 -1.987633 4.360587 1.514684 -15.279161 13.641348 2.616970 3.570939 -0.926101 -6.348717 -5.547797 6.405633 17.557202 -0.370427 4.877435 3.059723 0.223100 -0.207280 0.162140 18.153890 -9.971525 3.901305 -8.956279 5.124113 -37.599761 12.888712 -11.604705 36.818018 -0.594429 -5.973897 2.276526 -0.078200 0.355430 0.361590 -3.313596 -2.871504 -8.018396 7.035774 -3.939113 13.495481 -2.494653 -2.986816 -1.897130 3.331064 1.005690 -7.190556 -0.546102 1.113965 37.131536 -1.125640 1.742260 -6.524560 -25.105613 -4.348483 0.669899 -47.120747 -3.927624 -5.025207 -3.907597 -20.095256 -1.232909 -3.911578 2.833868 0.613800 0.207440 -0.026010 0.201920 18.940964 2.695850 3.785844 52.527630 -3.994215 -8.798531 14.978616 13.356687 0.055769 2.179651 -1.162505 -0.245270 0.168710 0.105350 -0.224220 
-0.345730 16.702330 -4.459740 -1.950766 3.535289 1.402563 -15.277790 13.713060 2.647735 3.597811 -0.841385 -5.881081 -5.569274 6.488346 17.700609 -0.357600 4.946935 3.041895 0.205090 -0.229950 0.152660 18.143659 -10.011359 3.829055 -8.036902 5.042430 -37.455934 11.570761 -10.248355 34.326427 -0.460389 -5.314636 2.502702 -0.087260 0.363370 0.352030 -3.288139 -2.934694 -7.973263 6.898924 -4.158120 13.517767 -2.604837 -3.212644 -1.718501 3.274499 0.786919 -7.399124 -0.912628 1.480295 36.661556 -0.929700 1.937050 -6.426800 -24.145782 -4.148162 0.853241 -46.765114 -3.256578 -5.375785 -3.274631 -20.744504 -1.326276 -3.907518 2.828435 0.616190 0.207050 -0.035810 0.196610 18.087213 2.576399 3.985748 52.371376 -4.600959 -9.440553 16.548379 15.150157 0.252182 2.163237 -1.172002 -0.258760 0.173180 0.113990 -0.226610 
